# xmcd
#
# Track frame offsets:
#	150
#	13500
#	29362
#	51562
#	67687
#	82537
#	98699
#	118349
#	127274
#	141861
#	157948
#	175198
#	194323
#
# Disc length: 2804 seconds
#
# Revision: 1
# Processed by: cddbd v1.5.2PL0 Copyright (c) Steve Scherf et al.
# Submitted via: audiograbber 1.83.01
#
DISCID=a60af20d
DTITLE=The Gallus Brothers - Get The Heebie Jeebies
DYEAR=2007
DGENRE=Blues
TTITLE0=Down South Blues
TTITLE1=Baby, How Long?
TTITLE2=Whinin' Boy
TTITLE3=Victory Rag - Bye Bye Blue Bell
TTITLE4=Darktown Strutters Ball
TTITLE5=Railroad Bill
TTITLE6=Garbage Man
TTITLE7=Buckdancer's Choice
TTITLE8=Railroad Boomer
TTITLE9=Georgia Buck
TTITLE10=Vastopol
TTITLE11=One Steady Roll
TTITLE12=Black Sea Waltz
EXTD=
EXTT0=
EXTT1=
EXTT2=
EXTT3=
EXTT4=
EXTT5=
EXTT6=
EXTT7=
EXTT8=
EXTT9=
EXTT10=
EXTT11=
EXTT12=
PLAYORDER=
